<svg width="28" height="28" viewBox="0 0 28 28" fill="none" xmlns="http://www.w3.org/2000/svg">
<path opacity="0.65" fill-rule="evenodd" clip-rule="evenodd" d="M13.7872 28C21.3617 28 27.5745 21.7872 27.5745 14.0426C27.5745 6.29787 21.3617 0 13.7872 0C6.21277 0 0 6.29787 0 14.0426C0 21.7872 6.21277 28 13.7872 28ZM18.6383 5.78723C19.7447 5.3617 21.0213 4.85106 21.9574 5.78723C22.8936 6.7234 22.4681 8 22.0426 9.19149C22.0426 9.2766 21.9574 9.2766 21.9574 9.3617C21.8723 9.70213 21.617 10.1277 21.4468 10.6383C21.0213 11.7447 20.5106 13.1064 20.5106 13.7021C20.5106 14.6383 21.5319 17.617 21.9574 18.7234C22.383 19.7447 22.8936 21.2766 21.8723 22.2979C20.9362 23.234 19.4043 22.7234 18.383 22.2979C17.3617 21.8723 14.4681 20.8511 13.5319 20.8511C12.8511 20.8511 11.5745 21.3617 10.4681 21.7872C10.0426 22.0426 9.53192 22.2128 9.19149 22.2979C9.19149 22.383 9.10638 22.383 9.02128 22.383C7.91489 22.8085 6.6383 23.234 5.70213 22.2979C4.76596 21.3617 5.2766 20.0851 5.61702 18.8936C5.70213 18.8936 5.70213 18.8085 5.70213 18.7234C5.87234 18.383 6.04255 17.9574 6.21277 17.4468C6.6383 16.3404 7.23404 15.0638 7.23404 14.383C7.23404 13.4468 6.21277 10.4681 5.78723 9.44681C5.3617 8.42553 4.76596 6.80851 5.78723 5.87234C6.7234 4.85106 8.25532 5.44681 9.2766 5.87234C10.2979 6.29787 13.2766 7.31915 14.1277 7.31915C14.8085 7.31915 16.0851 6.80851 17.1915 6.29787C17.7021 6.12766 18.1277 5.95745 18.4681 5.78723C18.5532 5.78723 18.5532 5.78723 18.6383 5.78723Z" fill="url(#paint0_linear_6_114)"/>
<path opacity="0.65" fill-rule="evenodd" clip-rule="evenodd" d="M23.4894 4.08511C18.1277 -1.3617 9.44681 -1.3617 4.08511 4.08511C-1.3617 9.61702 -1.3617 18.4681 4.08511 23.9149C9.44681 29.3617 18.1277 29.3617 23.4894 23.9149C28.9362 18.4681 28.9362 9.61702 23.4894 4.08511ZM4.59575 16.4255C3.48936 15.8298 2.29787 15.234 2.29787 13.9574C2.29787 12.5957 3.48936 12 4.59575 11.4894C4.68085 11.4894 4.76596 11.4894 4.76596 11.4043C5.10638 11.234 5.53191 11.0638 6.04255 10.8936C7.14894 10.383 8.42553 9.87234 8.85106 9.44681C9.53191 8.76596 10.8936 5.87234 11.3191 4.85106C11.7447 3.82979 12.4255 2.38298 13.7872 2.38298C15.1489 2.38298 15.8298 3.82979 16.2553 4.85106C16.766 5.87234 18.0426 8.76596 18.7234 9.44681C19.1489 9.87234 20.4255 10.383 21.5319 10.8936C22.0426 11.0638 22.4681 11.234 22.8085 11.4043C22.8936 11.4894 22.8936 11.4894 22.9787 11.4894C24.0851 12 25.2766 12.5957 25.2766 13.9574C25.2766 15.234 24.0851 15.8298 22.9787 16.4255C22.8936 16.4255 22.8936 16.4255 22.8085 16.4255C22.4681 16.5957 22.0426 16.8511 21.5319 17.0213C20.4255 17.4468 19.1489 18.0426 18.7234 18.4681C18.0426 19.1489 16.766 21.9574 16.2553 23.0638C15.8298 24.0851 15.1489 25.5319 13.7872 25.5319C12.4255 25.5319 11.7447 24.0851 11.3191 23.0638C10.8936 21.9574 9.53191 19.1489 8.85106 18.4681C8.42553 18.0426 7.14894 17.4468 6.04255 17.0213C5.53191 16.8511 5.10638 16.5957 4.76596 16.4255C4.76596 16.4255 4.68085 16.4255 4.59575 16.4255Z" fill="url(#paint1_linear_6_114)"/>
<defs>
<linearGradient id="paint0_linear_6_114" x1="28.301" y1="0.0172738" x2="-0.727871" y2="27.225" gradientUnits="userSpaceOnUse">
<stop stop-color="#00A3FF"/>
<stop offset="1" stop-color="#FF00C7"/>
</linearGradient>
<linearGradient id="paint1_linear_6_114" x1="29.99" y1="0.0172693" x2="-2.42772" y2="1.66126" gradientUnits="userSpaceOnUse">
<stop stop-color="#13DEF2"/>
<stop offset="0.9" stop-color="#E26CFF"/>
</linearGradient>
</defs>
</svg>
